<?xml version="1.0" standalone="no"?><!DOCTYPE svg PUBLIC "-//W3C//DTD SVG 1.1//EN" "http://www.w3.org/Graphics/SVG/1.1/DTD/svg11.dtd"><svg t="1530110103992" class="icon" style="" viewBox="0 0 1757 1024" version="1.1" xmlns="http://www.w3.org/2000/svg" p-id="1185" xmlns:xlink="http://www.w3.org/1999/xlink" width="343.1640625" height="200"><defs><style type="text/css"></style></defs><path d="M1.089136 225.802438c6.858398-11.243275 59.027193-20.16294 103.363174-27.658457 0 0 70.307946-10.156425 76.529224-10.756066s29.982066-5.021996 32.155767 12.030304c2.810819 20.612671-16.677524 19.863119-29.982067 30.469275-10.943454 8.619844-17.951762 52.168796-22.48655 356.973978-4.947041 321.295319-5.209384 340.633752 10.606156 356.78659 24.847638 22.48655 62.774952 6.596055 69.033708 11.580573s7.795337 20.762581 3.747759 25.934488-23.161146-0.787029-111.008601 13.117154c-50.369872 7.945248-91.969989 34.217033-100.252535 29.045127-3.747758-2.32361-7.045786-8.394979-6.333711-19.900597 0.487209-7.495517 27.396113-16.527614 40.063536-43.811295 6.071368-13.117154 13.566885-105.386963 11.693006-371.477802s3.747758-346.967463-1.873879-348.541522S11.245561 257.845771 3.750044 252.224134C-2.658622 247.352048 1.089136 225.802438 1.089136 225.802438z" p-id="1186" fill="#002e5e"></path><path d="M212.237839 580.152985s56.666105-54.11763 170.035794-193.721627 134.919299-172.396882 161.490905-196.045236c4.797131-4.197489 20.949969-1.536581 31.968378-1.649014s25.7471-0.93694 28.408008 4.459832c5.771548 11.693006-34.179556 69.93317-146.162574 199.86795-96.842074 112.432749-103.513084 111.79563-150.922226 164.376679 16.789957 25.522234 35.378838 66.747575 142.189949 212.910149s159.916847 178.655638 184.277276 196.120192 51.606632 23.086191 49.957618 36.240823c-1.386671 11.243275-29.982066 7.495517-39.988581 7.495516s-72.444168-4.384877-108.684991-27.471068-82.450683-61.200893-168.649123-179.892398-153.920433-222.691798-153.920433-222.691798z" p-id="1187" fill="#002e5e"></path><path d="M626.814862 553.431468c29.982066 74.542913 60.751162 149.123303 60.751162 149.123303s132.483256-249.150972 153.957911-295.773085c2.998207-6.521099 7.495517-8.469934 10.38129-8.207591 7.270651 0.712074 8.05768 2.286133 9.594261 36.615599 1.649014 36.240823-2.061267 53.068258-6.783442 61.538191-27.620979 49.170589-226.814332 388.829924-232.361015 396.962559a51.456721 51.456721 0 0 1-10.606156 12.180214c-2.510998 2.1737-23.72331 6.858398-28.408008 0.299821s5.921458-18.738791 9.369396-25.597189 51.231856-87.772499 51.231856-104.937232c0-27.808367-40.438312-101.826593-110.85869-265.791019-6.82092-15.927973-15.96545-32.343154-29.982067-36.240823-18.738791-5.246862-34.666764 10.943454-42.7994 9.369396s-11.880394-14.353914-10.943454-19.038612 26.871427-13.416975 56.216375-27.171248 52.468616-27.920799 59.964132-27.508546c4.384877 0.224865 32.380632 72.219302 61.275849 144.176262zM1180.096419 774.099477a10.756066 10.756066 0 0 0-8.732277-6.858398c-61.200893 0-71.207408-61.838012-71.207407-96.804597s4.984519-120.565384 3.110639-146.799692-4.984519-69.333529-26.234308-88.072321-45.610218-21.24979-84.324562-21.249789-66.82253 6.258756-82.450682 21.249789-15.703107 46.772024-11.880394 50.594738c6.558577 6.558577 81.026534-36.240823 116.480328-0.78703 36.540643 36.540643 25.297369 89.946199 25.297368 89.946199s-224.865498 31.855946-224.865498 165.538485c0 14.991033 6.258756 67.75947 72.781467 67.75947 88.07232 0 146.799693-76.379314 146.799692-76.379315s3.035684 75.404897 69.333529 75.404897c53.405556 0 74.467957-23.648355 75.892105-25.747099s1.873879-3.597848 0-7.795337zM936.941861 760.045383c-41.675072 0-49.657797-31.855946-49.657798-46.35977 0-88.522051 153.65809-113.81942 153.658091-113.81942s11.243275 160.17919-104.000293 160.17919z" p-id="1188" fill="#002e5e"></path><path d="M895.753997 301.881931a26.234308 22.936281 90 1 0 45.872562 0 26.234308 22.936281 90 1 0-45.872562 0Z" p-id="1189" fill="#002e5e"></path><path d="M1020.366961 297.197233a26.684039 23.87322 90 1 0 47.74644 0 26.684039 23.87322 90 1 0-47.74644 0Z" p-id="1190" fill="#002e5e"></path><path d="M1255.501316 478.026571c8.394979-7.195696 86.198441-58.090254 146.799693-58.090254s84.961681 48.720858 84.96168 184.277276c0 85.261501-4.3474 103.662995-4.347399 130.534421 0 16.227793 8.732277 16.265271 15.590674 16.265272s23.123669-8.432456 28.108188-8.432457 7.795337 8.432456 7.795337 14.691213c0 13.117154-27.471068 16.227793-57.153314 28.745306-27.695934 11.655528-54.342495 30.619185-61.200893 30.619185-5.621637 0-9.032098-7.832815-9.032098-10.306335 0-3.747758 18.401493-52.131318 18.401494-163.327307s-22.48655-172.396882-86.198441-172.396881c-44.9731 0-78.403104 40.288402-78.403104 40.288401s0.337298 48.421037 0.337298 99.652893 0.562164 172.097061-4.384877 180.529518c-3.447938 5.921458-9.406873 4.984519-23.123669 10.006514s-33.242616 15.890495-33.729824 2.1737c-6.258756-163.364784 22.149252-328.828313-49.957618-328.828313-7.495517 0-10.006515 3.110639-16.227794 3.110639s-10.006515-7.495517-10.006515-13.117154c0-8.170113 17.502031-11.243275 43.099221-24.360429s37.739926-25.971965 42.724445-25.971965c21.699521-0.112433 44.598324 55.841599 45.947516 63.936757zM1639.196811 789.09051c6.708487-13.754273 3.110639-98.828386 3.110639-274.860594 0-30.619185 4.3474-72.931376 4.3474-86.648172 0-5.771548-10.156425-13.754273-14.503825-13.754273s-32.642975 13.454452-47.296709 20.462761c-21.212312 10.156425-67.75947 16.715002-67.75947 29.982066s7.233174 16.827435 9.669216 16.377704c5.921458-1.08685 12.592468-7.832815 23.72331-6.258757 33.729825 4.834608 25.597189 21.849431 25.597189 299.820664 0 29.344947 1.723969 37.964792 5.471727 39.838671s22.186729-6.558577 31.556125-10.306335 21.662043-5.471727 26.084398-14.653735zM1669.253832 22.224207a173.034001 173.034001 0 0 0-175.582476 298.134172c11.243275-1.948834 22.711415-9.744172 32.118289-29.157559C1557.870456 224.865498 1626.529388 198.893533 1695.787961 244.278886c2.773341 2.098745 5.846503 4.572265 8.957143 7.495517-33.467482 1.873879-51.231856 40.962998-51.231856 40.962998s-2.548476 4.384877-3.747759 6.521099a120.715295 120.715295 0 0 1-48.720858 46.134905 173.071478 173.071478 0 0 0 68.209201-323.169198zM1555.32198 142.002562C1511.323298 203.053545 1462.077754 221.11774 1430.559106 216.095744a147.474289 147.474289 0 0 1-5.659115-40.738133c0-85.786187 72.931376-155.232149 162.990009-155.232149a160.741353 160.741353 0 0 1 138.667057 78.328149C1718.574332 87.322768 1647.779177 12.742378 1555.32198 142.002562z" p-id="1191" fill="#002e5e"></path><path d="M1573.498608 286.478644C1541.267887 340.746185 1499.592814 359.784797 1448.698257 329.80273c0.712074 1.011895 86.198441 63.711891 139.978772-23.798265 41.225341-68.321634 84.66186-57.940343 84.66186-57.940343a103.925338 103.925338 0 0 0-22.48655-2.286133c-22.48655 0-56.965926 6.371189-77.278776 40.513267M1727.269131 416.525857a27.883322 27.883322 0 1 1-28.108187 28.033232 27.808367 27.808367 0 0 1 28.108187-28.033232z m0 51.719065a23.835743 23.835743 0 1 0-23.610877-23.685833 23.498445 23.498445 0 0 0 23.610877 23.72331z m-10.418768-39.801193h11.842916c7.720382 0 11.243275 2.848296 11.243275 9.29444a8.357501 8.357501 0 0 1-8.544889 8.769755l9.294441 14.241481h-4.872086l-8.84471-13.866705h-5.621637v13.866705h-4.49731z m4.49731 14.391392h5.546682c4.49731 0 8.694799-0.224865 8.694799-5.321817 0-4.49731-3.747758-5.021996-7.270651-5.021996h-6.97083z" p-id="1192" fill="#002e5e"></path></svg>